<?xml version="1.0" standalone="no"?>
<!DOCTYPE svg PUBLIC "-//W3C//DTD SVG 20010904//EN"
 "http://www.w3.org/TR/2001/REC-SVG-20010904/DTD/svg10.dtd">
<svg version="1.0" xmlns="http://www.w3.org/2000/svg"
 width="600.000000pt" height="600.000000pt" viewBox="0 0 600.000000 600.000000"
 preserveAspectRatio="xMidYMid meet">
<metadata>
Created by potrace 1.14, written by Peter Selinger 2001-2017
</metadata>
<g transform="translate(0.000000,600.000000) scale(0.100000,-0.100000)"
fill="#000000" stroke="none">
<path d="M2818 5995 c-2 -1 -41 -5 -88 -9 -225 -17 -496 -76 -708 -152 -54
-19 -119 -43 -147 -53 -129 -47 -443 -213 -512 -271 -7 -5 -15 -10 -19 -10
-10 0 -262 -193 -323 -247 -146 -130 -290 -284 -407 -438 -194 -254 -351 -548
-449 -840 -52 -155 -72 -227 -101 -360 -40 -186 -58 -377 -58 -615 0 -230 6
-312 38 -505 15 -86 20 -113 31 -163 3 -12 7 -32 10 -43 2 -12 12 -47 21 -78
9 -31 18 -63 19 -71 3 -14 42 -124 80 -230 63 -174 224 -471 348 -644 210
-293 482 -559 769 -752 143 -97 166 -110 328 -193 150 -77 405 -180 485 -196
11 -2 43 -11 70 -19 52 -17 310 -71 380 -80 160 -21 554 -29 705 -14 379 38
719 138 1065 312 128 65 380 218 405 247 3 3 31 24 63 48 115 84 342 296 432
402 37 45 110 133 117 144 4 5 18 24 31 40 173 225 351 565 446 855 48 144
101 367 116 485 3 28 8 64 11 80 15 99 21 236 18 425 -1 118 -5 226 -7 240 -2
14 -7 52 -11 85 -4 33 -8 67 -10 75 -1 8 -6 38 -10 65 -14 89 -63 287 -101
405 -203 631 -619 1184 -1170 1559 -71 48 -150 99 -175 112 -25 13 -47 27 -50
30 -4 5 -221 111 -285 139 -66 30 -276 105 -282 102 -2 -1 -22 6 -45 14 -61
22 -243 64 -338 79 -19 3 -42 8 -50 10 -8 2 -44 7 -80 11 -36 4 -81 9 -100 11
-42 4 -457 12 -462 8z"/>
</g>
</svg>
